<?xml version="1.0" standalone="no"?><!DOCTYPE svg PUBLIC "-//W3C//DTD SVG 1.1//EN" "http://www.w3.org/Graphics/SVG/1.1/DTD/svg11.dtd"><svg class="icon" height="512" viewBox="0 0 1044 1024" version="1.1" xmlns="http://www.w3.org/2000/svg"><path d="M528.303686 515.774745m-407.833098 0a407.833098 407.833098 0 1 0 815.666196 0 407.833098 407.833098 0 1 0-815.666196 0Z" fill="#EDA22B" /><path d="M763.944157 635.964235l-192.873412-334.024784c-23.592157-40.839529-62.142745-40.839529-85.714823 0l-192.853334 334.024784c-23.592157 40.879686-4.296784 74.229961 42.827294 74.229961h385.766902c47.144157 0 66.419451-33.350275 42.847373-74.229961z m-262.224314-239.254588c6.927059-7.489255 15.761569-11.243922 26.483451-11.243922 10.762039 0 19.576471 3.71451 26.50353 11.103373 6.886902 7.388863 10.340392 16.64502 10.340392 27.768471 0 9.577412-14.396235 79.992471-19.194981 131.212549H511.196863c-4.216471-51.220078-19.817412-121.635137-19.817412-131.212549 0.020078-10.962824 3.473569-20.178824 10.340392-27.627922z m52.505098 243.551373a35.940392 35.940392 0 0 1-26.001568 10.62149c-10.039216 0-18.713098-3.533804-25.981491-10.62149a34.595137 34.595137 0 0 1-10.882509-25.740549c0-10.019137 3.614118-18.69302 10.882509-25.961412a35.558902 35.558902 0 0 1 25.981491-10.902588c10.039216 0 18.713098 3.634196 26.001568 10.902588 7.268392 7.268392 10.88251 15.942275 10.88251 25.961412a34.534902 34.534902 0 0 1-10.88251 25.740549z" fill="#FFFFFF" /></svg>